# xmcd
# 
# Track frame offsets:
#     150
#     14224
#     40559
#     83963
#     101613
#     115182
#     129172
#     154449
#     166666
#     194340
# 
# Disc length: 2907
# 
# Revision: 1
# Processed by: cddbd v1.5.1PL0 Copyright (c) Steve Scherf et al.
# Submitted via: BonkEnc v1.0beta3
# 
DISCID=790b590a
DTITLE=Van Morrison - Before the Flame
DYEAR=2003
DGENRE=Folk-Rock
TTITLE0=Brown Eyed Girl
TTITLE1=He Ain't Give You None
TTITLE2=T.B Sheets
TTITLE3=Spanish Rose
TTITLE4=Goodbye Baby
TTITLE5=Ro Ro Rosey
TTITLE6=Who Drove the Red Sports Car
TTITLE7=Midnight Special
TTITLE8=Madame George
TTITLE9=Beside You
EXTD=
EXTT0=
EXTT1=
EXTT2=
EXTT3=
EXTT4=
EXTT5=
EXTT6=
EXTT7=
EXTT8=
EXTT9=
PLAYORDER=
